<?xml version="1.0"?>
<svg xmlns="http://www.w3.org/2000/svg" xmlns:xlink="http://www.w3.org/1999/xlink" xmlns:ev="http://www.w3.org/2001/xml-events" version="1.1" baseProfile="full" viewBox="18.5 18.5 777.047 1786.57">
	<g />
	<g>
		<g>
			<polygon points="556.899,1518.93,559.043,1470.02,581.81,1476.78," stroke="#000000" stroke-width="1.000000px" />
			<path fill="none" d=" M754.047,855.339 L556.899,1518.93" stroke="#000000" stroke-width="1.000000px" />
		</g>
		<g>
			<polygon points="477.927,485.974,491.38,533.051,467.643,533.843," stroke="#000000" stroke-width="1.000000px" />
			<path fill="none" d=" M516.899,1653.57 L477.927,485.974" stroke="#000000" stroke-width="1.000000px" />
		</g>
		<g>
			<polygon points="100,525.209,127.601,565.65,105.323,573.881," stroke="#000000" stroke-width="1.000000px" />
			<path fill="none" d=" M516.899,1653.57 L100,525.209" stroke="#000000" stroke-width="1.000000px" />
		</g>
		<g>
			<polygon points="336.361,732.92,357.155,777.247,333.849,781.818," stroke="#000000" stroke-width="1.000000px" />
			<path fill="none" d=" M516.899,1653.57 L336.361,732.92" stroke="#000000" stroke-width="1.000000px" />
		</g>
		<g>
			<polygon points="265.974,196.884,312.021,213.525,298.773,233.236," stroke="#000000" stroke-width="1.000000px" />
			<path fill="none" d=" M472.92,335.974 L265.974,196.884" stroke="#000000" stroke-width="1.000000px" />
		</g>
		<g>
			<polygon points="100,443.831,146.047,460.471,132.799,480.183," stroke="#000000" stroke-width="1.000000px" />
			<path fill="none" d=" M306.946,582.92 L100,443.831" stroke="#000000" stroke-width="1.000000px" />
		</g>
		<g>
			<polygon points="100,357.432,116.641,311.385,136.352,324.633," stroke="#000000" stroke-width="1.000000px" />
			<path fill="none" d=" M225.974,170 L100,357.432" stroke="#000000" stroke-width="1.000000px" />
		</g>
		<g>
			<polygon points="100,357.432,116.641,311.385,136.352,324.633," stroke="#000000" stroke-width="1.000000px" />
			<path fill="none" d=" M225.974,170 L100,357.432" stroke="#000000" stroke-width="1.000000px" />
		</g>
	</g>
	<g>
		<rect x="19.999999999999943" y="266.94647643285271" width="80" height="300" fill="#A071CB" stroke-width="1.000000px" stroke="#000000" />
		<text x="59.999999999999943" y="416.94647643285271" text-anchor="middle" dominant-baseline="middle" font-family="Arial" font-size="10" fill="#000000">{ «datatype» String}</text>
		<text x="57.999999999999943" y="400.94647643285271" text-anchor="middle" dominant-baseline="middle" font-family="Arial" font-size="10" fill="#000000">{ «datatype» String}</text>
	</g>
	<g>
		<rect x="714.0468985068801" y="705.33923641042463" width="80" height="300" fill="#FFFF01" stroke-width="1.000000px" stroke="#000000" />
		<text x="754.0468985068801" y="855.33923641042463" text-anchor="middle" dominant-baseline="middle" font-family="Arial" font-size="10" fill="#000000">{ «interface»\nWindow||+ draw()\n+ minimize()\n+ maximize()\n}</text>
	</g>
	<g>
		<rect x="476.89893538737215" y="1503.5730191609596" width="80" height="300" fill="#FFFF01" stroke-width="1.000000px" stroke="#000000" />
		<text x="516.89893538737215" y="1653.5730191609596" text-anchor="middle" dominant-baseline="middle" font-family="Arial" font-size="10" fill="#000000">{  ｛abstract｝\nMyOperatingSystemWindow|- name: String\n- ID: WindowID\n}</text>
	</g>
	<g>
		<rect x="432.92026961694575" y="185.97379318409321" width="80" height="300" fill="#FFFF01" stroke-width="1.000000px" stroke="#000000" />
		<text x="472.92026961694575" y="335.97379318409321" text-anchor="middle" dominant-baseline="middle" font-family="Arial" font-size="10" fill="#000000">{  ｛abstract｝\nMyApplicationWindow|- myApplicationContent: Content\n}</text>
	</g>
	<g>
		<rect x="266.94647643285265" y="432.92026961694592" width="80" height="300" fill="#FFFF01" stroke-width="1.000000px" stroke="#000000" />
		<text x="306.94647643285265" y="582.92026961694592" text-anchor="middle" dominant-baseline="middle" font-family="Arial" font-size="10" fill="#000000">{ «datatype»\nWindowID|- cool: String\n}</text>
	</g>
	<g>
		<rect x="185.97379318409304" y="20" width="80" height="300" fill="#FFFF01" stroke-width="1.000000px" stroke="#000000" />
		<text x="225.97379318409304" y="170" text-anchor="middle" dominant-baseline="middle" font-family="Arial" font-size="10" fill="#000000">{ «datatype»\nContent|- currentContent: String\n|+ setContent(inout newContent: String)\n+ displayContent()\n}</text>
	</g>
</svg>
