<?xml version="1.0"?>
<svg xmlns="http://www.w3.org/2000/svg" xmlns:xlink="http://www.w3.org/1999/xlink" xmlns:ev="http://www.w3.org/2001/xml-events" version="1.1" baseProfile="full" viewBox="18.5 18.5 113.026 123.768">
	<g>
		<g>
			<polygon points="99.5483,118.48,101.735,113.813,103.674,115.391," stroke="#000000" stroke-width="1.000000px" />
			<path fill="none" d=" M120.026,93.3181 L99.5483,118.48" stroke="#000000" stroke-width="1.000000px" />
		</g>
		<g>
			<polygon points="86.8067,56.0337,88.2392,60.9845,85.7408,61.0761," stroke="#000000" stroke-width="1.000000px" />
			<path fill="none" d=" M89.5483,130.768 L86.8067,56.0337" stroke="#000000" stroke-width="1.000000px" />
		</g>
		<g>
			<polygon points="40,80.5427,44.4013,83.2243,42.6216,84.98," stroke="#000000" stroke-width="1.000000px" />
			<path fill="none" d=" M89.5483,130.768 L40,80.5427" stroke="#000000" stroke-width="1.000000px" />
		</g>
		<g>
			<polygon points="74.7245,96.4398,77.8543,100.535,75.5592,101.526," stroke="#000000" stroke-width="1.000000px" />
			<path fill="none" d=" M89.5483,130.768 L74.7245,96.4398" stroke="#000000" stroke-width="1.000000px" />
		</g>
		<g>
			<polygon points="56.0337,33.9681,61.1422,34.6504,60.2201,36.9742," stroke="#000000" stroke-width="1.000000px" />
			<path fill="none" d=" M86.4398,46.0337 L56.0337,33.9681" stroke="#000000" stroke-width="1.000000px" />
		</g>
		<g>
			<polygon points="40,74.3743,45.1085,75.0566,44.1864,77.3803," stroke="#000000" stroke-width="1.000000px" />
			<path fill="none" d=" M70.4062,86.4398 L40,74.3743" stroke="#000000" stroke-width="1.000000px" />
		</g>
		<g>
			<polygon points="33.9681,60.4062,34.6504,55.2977,36.9742,56.2198," stroke="#000000" stroke-width="1.000000px" />
			<path fill="none" d=" M46.0337,30 L33.9681,60.4062" stroke="#000000" stroke-width="1.000000px" />
		</g>
		<g>
			<polygon points="33.9681,60.4062,34.6504,55.2977,36.9742,56.2198," stroke="#000000" stroke-width="1.000000px" />
			<path fill="none" d=" M46.0337,30 L33.9681,60.4062" stroke="#000000" stroke-width="1.000000px" />
		</g>
	</g>
	<g>
		<rect x="20.000000000000007" y="60.406184666475269" width="20" height="20" fill="#003FDD" stroke-width="1.000000px" stroke="#000000" />
		<text x="30.000000000000007" y="70.406184666475269" text-anchor="middle" dominant-baseline="middle" font-family="Arial" font-size="10" fill="#000000">{ «datatype»\nString}</text>
	</g>
	<g>
		<rect x="110.02629583248243" y="83.31811205118774" width="20" height="20" fill="#FFFF01" stroke-width="1.000000px" stroke="#000000" />
		<text x="120.02629583248243" y="93.31811205118774" text-anchor="middle" dominant-baseline="middle" font-family="Arial" font-size="10" fill="#000000">{ «interface»\nWindow||+ draw()\n+ minimize()\n+ maximize()\n}</text>
	</g>
	<g>
		<rect x="79.548320290206306" y="120.76759611629728" width="20" height="20" fill="#FFFF01" stroke-width="1.000000px" stroke="#000000" />
		<text x="89.548320290206306" y="130.76759611629728" text-anchor="middle" dominant-baseline="middle" font-family="Arial" font-size="10" fill="#000000">{  ｛abstract｝\nMyOperatingSystemWindow|- name: String\n- ID: WindowID\n}</text>
	</g>
	<g>
		<rect x="76.439845286132623" y="36.033660619657297" width="20" height="20" fill="#FFFF01" stroke-width="1.000000px" stroke="#000000" />
		<text x="86.439845286132623" y="46.033660619657297" text-anchor="middle" dominant-baseline="middle" font-family="Arial" font-size="10" fill="#000000">{  ｛abstract｝\nMyApplicationWindow|- myApplicationContent: Content\n}</text>
	</g>
	<g>
		<rect x="60.406184666475312" y="76.439845286132595" width="20" height="20" fill="#FFFF01" stroke-width="1.000000px" stroke="#000000" />
		<text x="70.406184666475312" y="86.439845286132595" text-anchor="middle" dominant-baseline="middle" font-family="Arial" font-size="10" fill="#000000">{ «datatype»\nWindowID|- cool: String\n}</text>
	</g>
	<g>
		<rect x="36.033660619657326" y="20" width="20" height="20" fill="#FFFF01" stroke-width="1.000000px" stroke="#000000" />
		<text x="46.033660619657326" y="30" text-anchor="middle" dominant-baseline="middle" font-family="Arial" font-size="10" fill="#000000">{ «datatype»\nContent|- currentContent: String\n|+ setContent(inout newContent: String)\n+ displayContent()\n}</text>
	</g>
</svg>
